<svg width="791" height="927" viewBox="0 0 791 927" fill="none" xmlns="http://www.w3.org/2000/svg">
<path d="M259.608 71.5029C276.84 65.6359 365.498 62.5029 380.108 119.003C387.608 148.003 385.265 202.211 352.108 244.503C303.108 307.003 249.108 293.503 221.608 280.503C203.108 271.757 154.553 245.398 157.66 174.117C160.766 102.837 229.464 72.4002 259.608 71.5029Z" stroke="black" stroke-width="95"/>
<path d="M393.608 47.5029C402.608 149.17 409.401 453.136 380.11 550.503C326.111 730.003 241.609 879.503 124.611 879.503C27.6099 879.503 13.191 740.275 133.108 596.503C226.108 485.003 155.176 570.053 234.608 482.503C278.61 434.003 418.308 349.703 513.108 406.503C607.908 463.303 688.278 383.67 704.111 347.503" stroke="black" stroke-width="95" stroke-linecap="round"/>
<path d="M743.466 353.599L667.952 546.697" stroke="black" stroke-width="95" stroke-linecap="round"/>
<path d="M743.05 344.136L604.108 278.654" stroke="black" stroke-width="95" stroke-linecap="round"/>
</svg>
